<svg 
   width="3350"
   height="2048"
   viewBox="0 0 886.3539 541.86668"
   version="1.1"
   id="svg5"
   xmlns="http://www.w3.org/2000/svg"
   xmlns:svg="http://www.w3.org/2000/svg">
  <g
     id="layer2"
     style="fill: currentcolor;">
    <circle
       style="opacity:1;fill:none;stroke:currentcolor;stroke-width:8.1;stroke-miterlimit:4;stroke-dasharray:none;stroke-opacity:1"
       id="path935"
       cx="270.42892"
       cy="270.42892"
       r="261.9375" />
    <path
       style="fill-opacity:1;stroke:none;stroke-width:0.264583px;stroke-linecap:butt;stroke-linejoin:miter;stroke-opacity:1"
       d="m 324.98998,342.63816 c 2.0806,-9.49918 4.27211,-20.40887 7.44886,-26.72102 2.04173,-4.55884 4.85462,-8.40327 7.88148,-9.85128 4.18811,-2.00353 13.45728,3.88544 15.82281,7.18657 6.53047,9.11341 12.11081,27.69992 4.86244,37.70294 -10.44289,14.41159 -44.34597,19.80487 -36.01559,-8.31721"
       id="path1479" />
    <path
       style="fill-opacity:1;stroke:none;stroke-width:0.264583px;stroke-linecap:butt;stroke-linejoin:miter;stroke-opacity:1"
       d="m 333.75983,387.05768 c -1.06297,-2.01929 -2.99426,-3.34084 -5.36882,-3.95636 -0.76443,-0.19815 -5.45933,-1.67209 -4.77051,-3.31624 1.22417,-2.922 11.24551,-2.07033 14.61148,-2.90204 2.55311,-0.63085 28.1077,-19.65804 29.78204,-12.82222 1.07098,4.37259 -10.55795,16.63683 -12.36626,20.33182 -1.97024,9.38723 1.89266,44.99154 5.38818,56.42279 2.48272,2.86885 3.15447,6.7846 6.12504,7.4262 35.29442,7.62308 17.8404,17.6954 4.61459,19.08827 -8.13555,2.70875 -12.02823,18.23017 -19.63754,21.12143 -5.65885,2.15019 -14.54884,1.0568 -16.86722,-4.88908 -0.9575,-2.45568 7.0505,-25.82943 7.24799,-34.59129 0.32541,-14.43636 -5.0629,-54.08789 -8.75897,-61.91328 z"
       id="path2753" />
    <path
       id="path4787"
       style="fill-opacity:1;stroke:none;stroke-width:1.00157;stroke-linecap:butt;stroke-linejoin:miter;stroke-miterlimit:4;stroke-dasharray:none;stroke-opacity:1"
       d="m 1487.291,462.83984 c -4.5076,-0.0112 -21.3198,0.0664 -25.7734,0.25977 -78.0094,17.52076 16.3815,106.1109 63.9824,106.20312 3.7334,0.007 6.8508,1.9759 7.4219,6.19922 l 29.3965,1098.26175 0.6738,2.1328 c 4.3419,13.752 7.5345,42.2033 30.414,36.6738 47.5054,-11.4811 56.6506,-68.5491 72.4766,-118.8984 7.9529,-25.3017 28.0533,-42.2049 34.4766,-64.2793 2.9375,-10.0949 -0.4347,-45.9256 -0.1133,-55.5957 0.2014,-6.0617 5.6547,-77.1618 -21.4316,-13.9512 -6.4937,15.1542 -30.6284,53.0556 -43.9629,72.0625 -4.6543,6.6342 -8.8926,-2.2559 -8.8926,-2.2559 l -38.1836,-969.84761 c 2.22,-45.21169 -33.3155,-85.99257 -56.1524,-88.78711 -18.2396,-2.23198 -24.7989,-8.12923 -44.332,-8.17774 z m -6.414,27.13282 c 1.7801,0.0267 3.6673,0.2785 5.6464,0.78125 11.7203,2.97717 22.3158,5.8847 33.6153,10.91015 12.962,5.76495 17.043,8.57384 16.6933,23.03711 -0.1149,4.75786 -0.7758,12.89601 -3.9531,16.95703 -9.3575,11.96047 -44.702,-0.6856 -53.6269,-8.64453 -5.9642,-5.31866 -12.4838,-11.52725 -14.6036,-19.49219 -3.4328,-12.89882 3.7677,-23.73552 16.2286,-23.54882 z"
       transform="scale(0.26458333)" />
    <path
       id="path10547"
       style="fill-opacity:1;stroke:none;stroke-width:0.999999px;stroke-linecap:butt;stroke-linejoin:miter;stroke-opacity:1"
       d="m 886.26367,147.43164 c -33.70398,-0.10518 -57.97265,2.29688 -57.97265,2.29688 0,0 -165.45103,32.24464 -206.09766,62.52734 -40.64663,30.2827 -131.90886,90.81488 -192.37695,164.19531 -60.46809,73.38045 -67.48302,104.85565 -109.81055,225.99805 -42.32752,121.14244 74.08008,331.03711 74.08008,331.03711 0,0 84.08638,72.79907 115.43945,133.36717 31.35307,60.5681 58.13477,139.3985 58.13477,139.3985 v 0 c -0.99017,17.5759 2.57372,52.7578 0.01,61.0429 -17.46293,56.4297 -51.80313,25.4935 -64.69336,40.5156 -15.4083,17.9567 26.65649,36.1173 23.66016,52.418 -9.21305,50.1203 -67.23861,113.3357 -110.77344,126.7539 -10.78768,6.6156 -124.72607,-14.123 -86.39062,27.4336 30.04825,32.5732 40.51828,19.4101 80.67382,57.4453 13.01862,19.8538 52.56779,113.5133 82.73829,116.1172 47.58837,4.1072 25.84191,-69.6855 25.20703,-99.0371 -1.59092,-73.548 11.63706,-146.0476 80.21875,-187.0137 16.56332,-9.8937 59.08295,-3.828 66.42578,-16.5117 15.00336,-25.9161 -11.64438,-51.8952 -10.91992,-78.164 0.88071,-31.9337 24.32877,-63.6708 23.56836,-95.6739 v 0 c 0,0 -12.4637,-112.998 -43.96485,-140.3203 -31.50115,-27.3223 -127.5261,-185.44335 -168.41015,-211.11522 -40.8841,-25.67188 -91.01362,-194.73308 -82.77539,-198.4668 8.23827,-3.73372 14.02631,-181.00209 104.8496,-280.58398 90.8233,-99.58188 181.33204,-156.98438 181.33204,-156.98438 0,0 121.81793,-63.88141 221.24218,-48.52734 99.42422,15.35408 81.85742,15.83398 81.85742,15.83398 l 62.75384,15.19532 c 0,0 58.2437,30.41467 74.9883,68.01953 16.7447,37.60486 -4.798,95.15764 -9.9492,101.67968 -5.1511,6.52207 -82.4608,46.57088 -105.90142,54.89388 -23.04395,8.18215 -65.44727,45.60782 -118.97355,23.82292 -53.52623,-21.78486 -48.03515,-18.55273 -48.03515,-18.55273 l 31.18581,55.06577 -24.06667,25.06899 42.0332,-2.43554 7.77503,49.61368 45.50427,-73.33244 c 0,0 28.9791,-22.72532 49.32323,-28.0336 29.21135,-7.62196 82.96475,-39.13086 82.96475,-39.13086 0,0 90.9908,-45.72924 86.4444,-112.6871 -4.5464,-66.95785 -39.5964,-106.38357 -116.0371,-139.90234 -42.99785,-18.8543 -101.928,-23.13234 -145.26169,-23.26758 z"
       transform="scale(0.26458333)" />
    <path
       id="path11776"
       style="fill-opacity:1;stroke:none;stroke-width:0.999999px;stroke-linecap:butt;stroke-linejoin:miter;stroke-opacity:1"
       d="m 1000.1543,117.30469 c -6.59747,0.0681 -12.53216,5.83546 -14.22266,15.41601 -12.53083,219.95959 23.00156,432.0918 -60.52148,651.20703 L 894.05273,1033.2852 742.9043,391.2793 c 0,0 -51.0306,403.81806 -15.61914,641.3359 35.41141,237.5178 -20.65235,571.3926 -20.65235,571.3926 l -81.54687,50.2324 c 0,0 -55.40052,51.2169 2.60937,43.4864 58.00989,-7.7305 118.66992,103.416 118.66992,103.416 0,0 30.70284,43.3018 72.96094,-0.041 42.25811,-43.3428 -22.68945,-126.6661 -22.68945,-126.6661 l -4.23047,-27.0527 8.4668,-432.8066 99.67968,447.8105 80.45899,-544.1601 36.85738,498.9336 c 0,0 4.1027,168.2307 -49.94722,209.748 -54.05001,41.5172 -24.42309,93.3326 27.55078,68.4141 42.39824,-20.3276 33.28844,-18.5637 42.39844,-20.3282 6.3875,3.2557 80.5883,31.6038 98.7012,23.1875 18.1128,-8.4162 56.9547,-39.4581 6.4511,-90.1191 -50.5037,-50.661 -55.5283,-90.3948 -62.2422,-128.4922 -6.8593,-38.923 -11.2089,-63.6973 -11.2089,-63.6973 -7.271,-493.4494 -30.5296,-985.19463 -52.3203,-1477.09566 0.2345,-3.41936 -0.541,-7.78353 -2.1817,-10.40039 -4.2518,-7.73125 -9.7846,-11.1252 -14.916,-11.07226 z"
       transform="scale(0.26458333)" />
  </g>
  <text
     xml:space="preserve"
     style="font-style:normal;font-weight:normal;font-size:105.833px;line-height:1.25;font-family:sans-serif;fill:currentcolor;fill-opacity:1;stroke:none;stroke-width:0.264583"
     x="150.00612"
     y="712.96741"
     id="text19565"
     transform="rotate(-30.951943)"><tspan
       id="tspan19563"
       style="font-size:105.833px;stroke-width:0.264583"
       x="150.00612"
       y="712.96741">AARHUS</tspan></text>
</svg>
