<svg 
   width="2048"
   height="2048"
   viewBox="0 0 541.86665 541.86668"
   version="1.1"
   id="svg5"
   xmlns="http://www.w3.org/2000/svg"
   xmlns:svg="http://www.w3.org/2000/svg">
  <g
     id="layer2"
     style="fill: currentcolor;">
    <circle
       style="fill:none;stroke:currentcolor;stroke-opacity:1;stroke-width:8.09999998;stroke-miterlimit:4;stroke-dasharray:none;opacity:1"
       id="path935"
       cx="270.42892"
       cy="270.42892"
       r="261.9375" />
    <path
       style="stroke:none;stroke-width:0.264583px;stroke-linecap:butt;stroke-linejoin:miter;stroke-opacity:1;fill-opacity:1"
       d="m 324.98998,342.63816 c 2.0806,-9.49918 4.27211,-20.40887 7.44886,-26.72102 2.04173,-4.55884 4.85462,-8.40327 7.88148,-9.85128 4.18811,-2.00353 13.45728,3.88544 15.82281,7.18657 6.53047,9.11341 12.11081,27.69992 4.86244,37.70294 -10.44289,14.41159 -44.34597,19.80487 -36.01559,-8.31721"
       id="path1479" />
    <path
       style="stroke:none;stroke-width:0.264583px;stroke-linecap:butt;stroke-linejoin:miter;stroke-opacity:1;fill-opacity:1"
       d="m 333.75983,387.05768 c -1.06297,-2.01929 -2.99426,-3.34084 -5.36882,-3.95636 -0.76443,-0.19815 -5.45933,-1.67209 -4.77051,-3.31624 1.22417,-2.922 11.24551,-2.07033 14.61148,-2.90204 2.55311,-0.63085 28.1077,-19.65804 29.78204,-12.82222 1.07098,4.37259 -10.55795,16.63683 -12.36626,20.33182 -1.97024,9.38723 1.89266,44.99154 5.38818,56.42279 2.48272,2.86885 3.15447,6.7846 6.12504,7.4262 35.29442,7.62308 17.8404,17.6954 4.61459,19.08827 -8.13555,2.70875 -12.02823,18.23017 -19.63754,21.12143 -5.65885,2.15019 -14.54884,1.0568 -16.86722,-4.88908 -0.9575,-2.45568 7.0505,-25.82943 7.24799,-34.59129 0.32541,-14.43636 -5.0629,-54.08789 -8.75897,-61.91328 z"
       id="path2753" />
    <path
       id="path4787"
       style="stroke:none;stroke-width:1.00157481;stroke-linecap:butt;stroke-linejoin:miter;stroke-opacity:1;fill-opacity:1;stroke-miterlimit:4;stroke-dasharray:none"
       d="M 1487.291 462.83984 C 1482.7834 462.82864 1465.9712 462.90621 1461.5176 463.09961 C 1383.5082 480.62037 1477.8991 569.21051 1525.5 569.30273 C 1529.2334 569.30973 1532.3508 571.27863 1532.9219 575.50195 L 1562.3184 1673.7637 L 1562.9922 1675.8965 C 1567.3341 1689.6485 1570.5267 1718.0998 1593.4062 1712.5703 C 1640.9116 1701.0892 1650.0568 1644.0212 1665.8828 1593.6719 C 1673.8357 1568.3702 1693.9361 1551.467 1700.3594 1529.3926 C 1703.2969 1519.2977 1699.9247 1483.467 1700.2461 1473.7969 C 1700.4475 1467.7352 1705.9008 1396.6351 1678.8145 1459.8457 C 1672.3208 1474.9999 1648.1861 1512.9013 1634.8516 1531.9082 C 1630.1973 1538.5424 1625.959 1529.6523 1625.959 1529.6523 L 1587.7754 559.80469 C 1589.9954 514.593 1554.4599 473.81212 1531.623 471.01758 C 1513.3834 468.7856 1506.8241 462.88835 1487.291 462.83984 z M 1480.877 489.97266 C 1482.6571 489.99933 1484.5443 490.25116 1486.5234 490.75391 C 1498.2437 493.73108 1508.8392 496.63861 1520.1387 501.66406 C 1533.1007 507.42901 1537.1817 510.2379 1536.832 524.70117 C 1536.7171 529.45903 1536.0562 537.59718 1532.8789 541.6582 C 1523.5214 553.61867 1488.1769 540.9726 1479.252 533.01367 C 1473.2878 527.69501 1466.7682 521.48642 1464.6484 513.52148 C 1461.2156 500.62266 1468.4161 489.78596 1480.877 489.97266 z "
       transform="scale(0.26458333)" />
    <path
       id="path10547"
       style="fill-opacity:1;stroke:none;stroke-width:0.999999px;stroke-linecap:butt;stroke-linejoin:miter;stroke-opacity:1"
       d="m 886.26367,147.43164 c -33.70398,-0.10518 -57.97265,2.29688 -57.97265,2.29688 0,0 -165.45103,32.24464 -206.09766,62.52734 -40.64663,30.2827 -131.90886,90.81488 -192.37695,164.19531 -60.46809,73.38045 -67.48302,104.85565 -109.81055,225.99805 -42.32752,121.14244 74.08008,331.03711 74.08008,331.03711 0,0 84.08638,72.79907 115.43945,133.36717 31.35307,60.5681 58.13477,139.3985 58.13477,139.3985 v 0 c -0.99017,17.5759 2.57372,52.7578 0.01,61.0429 -17.46293,56.4297 -51.80313,25.4935 -64.69336,40.5156 -15.4083,17.9567 26.65649,36.1173 23.66016,52.418 -9.21305,50.1203 -67.23861,113.3357 -110.77344,126.7539 -10.78768,6.6156 -124.72607,-14.123 -86.39062,27.4336 30.04825,32.5732 40.51828,19.4101 80.67382,57.4453 13.01862,19.8538 52.56779,113.5133 82.73829,116.1172 47.58837,4.1072 25.84191,-69.6855 25.20703,-99.0371 -1.59092,-73.548 11.63706,-146.0476 80.21875,-187.0137 16.56332,-9.8937 59.08295,-3.828 66.42578,-16.5117 15.00336,-25.9161 -11.64438,-51.8952 -10.91992,-78.164 0.88071,-31.9337 24.32877,-63.6708 23.56836,-95.6739 v 0 c 0,0 -12.4637,-112.998 -43.96485,-140.3203 -31.50115,-27.3223 -127.5261,-185.44335 -168.41015,-211.11522 -40.8841,-25.67188 -91.01362,-194.73308 -82.77539,-198.4668 8.23827,-3.73372 14.02631,-181.00209 104.8496,-280.58398 90.8233,-99.58188 181.33204,-156.98438 181.33204,-156.98438 0,0 121.81793,-63.88141 221.24218,-48.52734 99.42422,15.35408 81.85742,15.83398 81.85742,15.83398 l 62.75384,15.19532 c 0,0 58.2437,30.41467 74.9883,68.01953 16.7447,37.60486 -4.798,95.15764 -9.9492,101.67968 -5.1511,6.52207 -82.4608,46.57088 -105.90142,54.89388 -23.04395,8.18215 -65.44727,45.60782 -118.97355,23.82292 -53.52623,-21.78486 -48.03515,-18.55273 -48.03515,-18.55273 l 31.18581,55.06577 -24.06667,25.06899 42.0332,-2.43554 7.77503,49.61368 45.50427,-73.33244 c 0,0 28.9791,-22.72532 49.32323,-28.0336 29.21135,-7.62196 82.96475,-39.13086 82.96475,-39.13086 0,0 90.9908,-45.72924 86.4444,-112.6871 -4.5464,-66.95785 -39.5964,-106.38357 -116.0371,-139.90234 -42.99785,-18.8543 -101.928,-23.13234 -145.26169,-23.26758 z"
       transform="scale(0.26458333)" />
    <path
       id="path11776"
       style="fill-opacity:1;stroke:none;stroke-width:0.999999px;stroke-linecap:butt;stroke-linejoin:miter;stroke-opacity:1"
       d="M 1000.1543 117.30469 C 993.55683 117.37275 987.62214 123.14015 985.93164 132.7207 C 973.40081 352.68029 1008.9332 564.8125 925.41016 783.92773 L 894.05273 1033.2852 L 742.9043 391.2793 C 742.9043 391.2793 691.8737 795.09736 727.28516 1032.6152 C 762.69657 1270.133 706.63281 1604.0078 706.63281 1604.0078 L 625.08594 1654.2402 C 625.08594 1654.2402 569.68542 1705.4571 627.69531 1697.7266 C 685.7052 1689.9961 746.36523 1801.1426 746.36523 1801.1426 C 746.36523 1801.1426 777.06807 1844.4444 819.32617 1801.1016 C 861.58428 1757.7588 796.63672 1674.4355 796.63672 1674.4355 L 792.40625 1647.3828 L 800.87305 1214.5762 L 900.55273 1662.3867 L 981.01172 1118.2266 L 1017.8691 1617.1602 C 1017.8691 1617.1602 1021.9718 1785.3909 967.92188 1826.9082 C 913.87187 1868.4254 943.49879 1920.2408 995.47266 1895.3223 C 1037.8709 1874.9947 1028.7611 1876.7586 1037.8711 1874.9941 C 1044.2586 1878.2498 1118.4594 1906.5979 1136.5723 1898.1816 C 1154.6851 1889.7654 1193.527 1858.7235 1143.0234 1808.0625 C 1092.5197 1757.4015 1087.4951 1717.6677 1080.7812 1679.5703 C 1073.9219 1640.6473 1069.5723 1615.873 1069.5723 1615.873 C 1062.3013 1122.4236 1039.0427 630.67837 1017.252 138.77734 C 1017.4865 135.35798 1016.711 130.99381 1015.0703 128.37695 C 1010.8185 120.6457 1005.2857 117.25175 1000.1543 117.30469 z "
       transform="scale(0.26458333)" />
  </g>
</svg>
