<?xml version="1.0" standalone="no"?>
<!DOCTYPE svg PUBLIC "-//W3C//DTD SVG 20010904//EN"
 "http://www.w3.org/TR/2001/REC-SVG-20010904/DTD/svg10.dtd">
<svg version="1.0" xmlns="http://www.w3.org/2000/svg"
 width="700.000000pt" height="700.000000pt" viewBox="0 0 700.000000 700.000000"
 preserveAspectRatio="xMidYMid meet">
<metadata>
Created by potrace 1.14, written by Peter Selinger 2001-2017
</metadata>
<g transform="translate(0.000000,700.000000) scale(0.100000,-0.100000)"
fill="#000000" stroke="none">
<path d="M3386 6578 c-9 -12 -16 -42 -16 -67 l0 -44 -42 7 c-131 19 -321 27
-429 17 -185 -17 -594 -123 -720 -186 -69 -35 -389 -279 -509 -387 -172 -155
-299 -312 -379 -468 -90 -176 -216 -542 -226 -660 -18 -200 67 -533 220 -855
49 -105 57 -116 181 -240 214 -215 277 -314 410 -645 l59 -145 3 -121 c3 -106
1 -127 -16 -161 -29 -57 -46 -67 -124 -74 -104 -9 -113 -36 -41 -124 l47 -57
-13 -46 c-34 -130 -196 -322 -320 -381 -61 -29 -68 -30 -195 -28 -138 2 -176
-7 -176 -41 0 -27 87 -105 158 -142 100 -53 142 -97 203 -212 135 -257 222
-336 294 -264 34 34 40 83 25 227 -28 275 21 489 144 626 73 81 129 111 227
124 46 5 94 17 106 24 36 24 38 72 7 161 -35 101 -33 144 11 274 42 125 45
172 15 324 -34 173 -71 263 -142 343 -33 37 -99 122 -146 188 -198 276 -314
424 -394 500 -71 68 -92 95 -135 180 -90 176 -184 479 -163 527 5 12 19 77 30
143 59 344 151 583 291 760 55 70 240 253 352 349 114 97 272 213 336 245 158
80 388 145 554 156 75 6 122 2 252 -19 88 -15 177 -32 198 -38 l37 -11 0 -413
0 -414 -67 -33 c-85 -43 -162 -61 -220 -53 -24 3 -89 23 -144 45 -54 21 -99
36 -99 34 0 -3 23 -46 51 -95 l51 -90 -37 -38 -38 -39 69 -3 68 -3 11 -72 c6
-40 13 -75 16 -77 2 -3 33 42 68 100 35 58 72 116 83 129 22 28 122 91 160
100 l28 7 -6 -83 c-25 -401 -72 -677 -159 -927 -29 -86 -39 -144 -85 -512 -29
-228 -53 -416 -55 -418 -1 -2 -9 25 -17 60 -104 457 -494 2095 -499 2092 -3
-2 -9 -32 -12 -66 -97 -1014 -108 -1567 -42 -2093 66 -517 45 -1152 -61 -1908
l-7 -48 -139 -86 c-145 -90 -218 -156 -218 -200 0 -29 9 -33 91 -36 37 -2 81
-11 104 -22 59 -28 183 -157 251 -260 73 -111 110 -139 177 -132 85 8 167 100
167 187 0 69 -44 185 -102 271 -14 19 -28 55 -32 80 -8 49 12 1340 22 1433 7
57 16 19 172 -682 131 -589 167 -735 173 -709 4 17 63 415 132 882 69 468 128
863 133 879 4 19 31 -290 71 -837 50 -685 62 -888 57 -969 -22 -318 -67 -460
-180 -574 -37 -36 -70 -80 -76 -100 -29 -86 22 -150 112 -140 26 3 82 23 128
46 l81 41 107 -36 c59 -20 135 -39 169 -42 54 -5 67 -3 95 17 46 31 69 65 75
110 8 58 -12 101 -84 181 -81 92 -136 175 -163 246 -11 29 -34 127 -51 216
-33 178 -32 155 -49 947 -11 472 -32 1159 -50 1640 -28 716 -60 1492 -65 1555
l-5 70 72 39 c216 116 328 249 328 391 0 199 -111 353 -332 458 l-107 52 -1
56 c0 90 -56 141 -94 87z m205 -319 c88 -56 167 -134 195 -194 28 -59 32 -147
9 -241 -26 -113 -26 -113 -193 -199 -40 -21 -75 -36 -78 -33 -5 6 -33 550 -34
656 0 66 13 67 101 11z"/>
<path d="M4952 5400 c-27 -12 -46 -29 -53 -47 -33 -88 127 -254 286 -294 26
-6 49 -17 51 -23 2 -6 26 -856 54 -1889 49 -1810 51 -1879 71 -1933 28 -73 52
-83 124 -50 83 38 122 101 179 291 36 117 50 148 117 254 l34 54 -3 160 c-2
89 -6 165 -8 169 -10 16 -34 -14 -68 -83 -49 -100 -146 -249 -161 -249 -9 0
-15 22 -19 73 -3 39 -33 785 -66 1657 -33 872 -64 1613 -69 1647 -12 80 -44
146 -97 199 -36 37 -52 44 -131 63 -112 26 -185 27 -241 1z m203 -100 c79 -27
95 -43 95 -96 0 -59 -21 -78 -77 -70 -112 15 -197 102 -159 161 21 31 61 33
141 5z"/>
<path d="M4358 3012 c-44 -49 -68 -94 -96 -182 -37 -113 -84 -342 -79 -383 17
-133 166 -171 343 -88 182 85 225 242 134 484 -42 112 -132 194 -222 204 -41
5 -46 2 -80 -35z"/>
<path d="M4658 2296 c-32 -13 -109 -55 -170 -94 -108 -67 -116 -70 -193 -77
-130 -12 -147 -32 -60 -70 30 -13 61 -35 70 -48 40 -62 103 -454 112 -702 l5
-150 -47 -197 c-47 -191 -47 -198 -31 -223 25 -39 79 -58 148 -53 74 5 98 23
169 127 75 109 105 139 154 152 100 28 138 43 165 66 75 63 6 120 -219 179
-52 14 -95 81 -115 174 -28 138 -46 304 -52 475 -7 193 -19 154 99 319 59 80
73 128 41 140 -19 7 -9 10 -76 -18z"/>
</g>
</svg>
